<svg xmlns="http://www.w3.org/2000/svg" viewBox="0 0 100 100">
    <defs>
    <linearGradient id="moonGradient" x1="0%" y1="0%" x2="100%" y2="100%">
      <stop offset="0%" style="stop-color:#C8A2C8;stop-opacity:1" />
      <stop offset="100%" style="stop-color:#9B6B9B;stop-opacity:1" />
    </linearGradient>
    <linearGradient id="starGradient" x1="0%" y1="0%" x2="100%" y2="100%">
      <stop offset="0%" style="stop-color:#FFE5B4;stop-opacity:1" />
      <stop offset="100%" style="stop-color:#FFC0CB;stop-opacity:1" />
    </linearGradient>
    <linearGradient id="cloudGradient" x1="0%" y1="0%" x2="100%" y2="100%">
      <stop offset="0%" style="stop-color:#E0FFFF;stop-opacity:1" />
      <stop offset="100%" style="stop-color:#B0E2FF;stop-opacity:1" />
    </linearGradient>
    <radialGradient id="mysticGradient" cx="50%" cy="50%" r="50%" fx="50%" fy="50%">
      <stop offset="0%" style="stop-color:#E6E6FA;stop-opacity:1" />
      <stop offset="100%" style="stop-color:#DDA0DD;stop-opacity:1" />
    </radialGradient>
  </defs>

  <!-- Avatar 1: Ethereal Moon -->
    <circle cx="50" cy="50" r="45" fill="url(#moonGradient)"/>
    <path d="M35 50C35 41.7157 41.7157 35 50 35C58.2843 35 65 41.7157 65 50C65 58.2843 58.2843 65 50 65C41.7157 65 35 58.2843 35 50Z" fill="#E6E6FA" opacity="0.8"/>
    <path d="M45 35C52 35 60 41.7157 60 50C60 58.2843 52 65 45 65C52 65 60 58.2843 60 50C60 41.7157 52 35 45 35Z" fill="#F8F8FF" opacity="0.6"/>
    <circle cx="40" cy="40" r="3" fill="#FFFFFF" opacity="0.8"/>
    <circle cx="60" cy="55" r="2" fill="#FFFFFF" opacity="0.8"/>
</svg>