<svg xmlns="http://www.w3.org/2000/svg" viewBox="0 0 100 100">
    <defs>
    <linearGradient id="moonGradient" x1="0%" y1="0%" x2="100%" y2="100%">
      <stop offset="0%" style="stop-color:#C8A2C8;stop-opacity:1" />
      <stop offset="100%" style="stop-color:#9B6B9B;stop-opacity:1" />
    </linearGradient>
    <linearGradient id="starGradient" x1="0%" y1="0%" x2="100%" y2="100%">
      <stop offset="0%" style="stop-color:#FFE5B4;stop-opacity:1" />
      <stop offset="100%" style="stop-color:#FFC0CB;stop-opacity:1" />
    </linearGradient>
    <linearGradient id="cloudGradient" x1="0%" y1="0%" x2="100%" y2="100%">
      <stop offset="0%" style="stop-color:#E0FFFF;stop-opacity:1" />
      <stop offset="100%" style="stop-color:#B0E2FF;stop-opacity:1" />
    </linearGradient>
    <radialGradient id="mysticGradient" cx="50%" cy="50%" r="50%" fx="50%" fy="50%">
      <stop offset="0%" style="stop-color:#E6E6FA;stop-opacity:1" />
      <stop offset="100%" style="stop-color:#DDA0DD;stop-opacity:1" />
    </radialGradient>
  </defs>

  <!-- Avatar 1: Ethereal Moon -->
    <circle cx="50" cy="50" r="45" fill="url(#cloudGradient)"/>
    <path d="M50 35C45 35 40 40 40 45C35 45 30 50 30 55C30 60 35 65 50 65C65 65 70 60 70 55C70 50 65 45 60 45C60 40 55 35 50 35Z" 
          fill="#FFFFFF" opacity="0.9"/>
    <circle cx="45" cy="45" r="10" fill="#F0F8FF" opacity="0.7"/>
    <circle cx="55" cy="50" r="8" fill="#F0FFFF" opacity="0.6"/>


</svg>